<svg width="15" height="15" viewBox="0 0 15 15" fill="none" xmlns="http://www.w3.org/2000/svg">
<path fill-rule="evenodd" clip-rule="evenodd" d="M0 1.73077C0 2.68664 0.77489 3.46153 1.73077 3.46153C2.68664 3.46153 3.46153 2.68664 3.46153 1.73077C3.46153 0.77489 2.68664 0 1.73077 0C0.77489 0 0 0.77489 0 1.73077ZM0 7.49998C0 8.45586 0.77489 9.23075 1.73077 9.23075C2.68664 9.23075 3.46153 8.45586 3.46153 7.49998C3.46153 6.54411 2.68664 5.76922 1.73077 5.76922C0.77489 5.76922 0 6.54411 0 7.49998ZM3.46153 13.2692C3.46153 14.2251 2.68664 15 1.73077 15C0.77489 15 0 14.2251 0 13.2692C0 12.3133 0.77489 11.5384 1.73077 11.5384C2.68664 11.5384 3.46153 12.3133 3.46153 13.2692ZM5.76932 13.2692C5.76932 14.2251 6.54421 15 7.50009 15C8.45596 15 9.23085 14.2251 9.23085 13.2692C9.23085 12.3133 8.45596 11.5384 7.50009 11.5384C6.54421 11.5384 5.76932 12.3133 5.76932 13.2692ZM14.9999 7.49998C14.9999 8.45586 14.225 9.23075 13.2692 9.23075C12.3133 9.23075 11.5384 8.45586 11.5384 7.49998C11.5384 6.54411 12.3133 5.76922 13.2692 5.76922C14.225 5.76922 14.9999 6.54411 14.9999 7.49998ZM5.76932 7.49998C5.76932 8.45586 6.54421 9.23075 7.50009 9.23075C8.45596 9.23075 9.23085 8.45586 9.23085 7.49998C9.23085 6.54411 8.45596 5.76922 7.50009 5.76922C6.54421 5.76922 5.76932 6.54411 5.76932 7.49998ZM14.9999 13.2692C14.9999 14.2251 14.225 15 13.2692 15C12.3133 15 11.5384 14.2251 11.5384 13.2692C11.5384 12.3133 12.3133 11.5384 13.2692 11.5384C14.225 11.5384 14.9999 12.3133 14.9999 13.2692ZM13.2692 0C12.3133 0 11.5384 0.77489 11.5384 1.73077C11.5384 2.68664 12.3133 3.46153 13.2692 3.46153C14.225 3.46153 14.9999 2.68664 14.9999 1.73077C14.9999 0.77489 14.225 0 13.2692 0ZM9.23085 1.73077C9.23085 2.68664 8.45596 3.46153 7.50009 3.46153C6.54421 3.46153 5.76932 2.68664 5.76932 1.73077C5.76932 0.77489 6.54421 0 7.50009 0C8.45596 0 9.23085 0.77489 9.23085 1.73077Z" fill="#4F4F4F"/>
</svg>
