<svg width="16" height="16" viewBox="0 0 16 16" fill="none" xmlns="http://www.w3.org/2000/svg">
<path fill-rule="evenodd" clip-rule="evenodd" d="M10.7124 10.0629H11.4351L16 14.6369L14.6369 16L10.0629 11.4351V10.7124L9.81588 10.4562C8.773 11.3528 7.41909 11.8925 5.94625 11.8925C2.66209 11.8925 0 9.23041 0 5.94625C0 2.66209 2.66209 0 5.94625 0C9.23041 0 11.8925 2.66209 11.8925 5.94625C11.8925 7.41909 11.3528 8.773 10.4562 9.81588L10.7124 10.0629ZM1.82963 5.94626C1.82963 8.22413 3.66839 10.0629 5.94626 10.0629C8.22413 10.0629 10.0629 8.22413 10.0629 5.94626C10.0629 3.66839 8.22413 1.82963 5.94626 1.82963C3.66839 1.82963 1.82963 3.66839 1.82963 5.94626Z" fill="#64676C"/>
</svg>
