<svg width="18" height="19" viewBox="0 0 18 19" fill="none" xmlns="http://www.w3.org/2000/svg">
<path d="M1.38297 6.64886C1.73981 5.55368 2.32508 4.54673 3.10006 3.69458C3.16423 3.62422 3.24778 3.57441 3.34019 3.55143C3.43261 3.52845 3.52975 3.53332 3.6194 3.56543L5.46838 4.22344C5.59972 4.27 5.73958 4.28757 5.87836 4.27495C6.01713 4.26232 6.15153 4.2198 6.27231 4.1503C6.39309 4.0808 6.49739 3.98598 6.57804 3.87234C6.6587 3.75871 6.71379 3.62896 6.73954 3.49201L7.09302 1.56691C7.11027 1.47334 7.15485 1.38698 7.22116 1.31874C7.28746 1.2505 7.3725 1.20344 7.46554 1.18352C8.59498 0.943929 9.76213 0.943929 10.8916 1.18352C11.0819 1.2243 11.2287 1.37521 11.2641 1.56691L11.6176 3.49201C11.6429 3.62919 11.6977 3.75922 11.7783 3.8731C11.8588 3.98699 11.9632 4.082 12.0841 4.15157C12.205 4.22114 12.3396 4.2636 12.4785 4.27601C12.6174 4.28842 12.7574 4.27048 12.8887 4.22344L14.7377 3.56543C14.8274 3.53332 14.9245 3.52845 15.0169 3.55143C15.1093 3.57441 15.1929 3.62422 15.257 3.69458C16.0306 4.54701 16.6166 5.55307 16.9728 6.64886C17.0022 6.73941 17.004 6.83667 16.9778 6.92822C16.9516 7.01976 16.8988 7.10143 16.826 7.16276L15.3277 8.42849C15.2211 8.5182 15.1353 8.63016 15.0765 8.75651C15.0177 8.88286 14.9872 9.02055 14.9872 9.15992C14.9872 9.2993 15.0177 9.43699 15.0765 9.56334C15.1353 9.68969 15.2211 9.80164 15.3277 9.89135L16.826 11.1571C16.9755 11.2835 17.0326 11.4861 16.9728 11.671C16.6164 12.7661 16.0316 13.773 15.257 14.6253C15.1929 14.6956 15.1093 14.7454 15.0169 14.7684C14.9245 14.7914 14.8274 14.7865 14.7377 14.7544L12.8887 14.0964C12.7574 14.0498 12.6175 14.0323 12.4788 14.0449C12.34 14.0575 12.2056 14.1 12.0848 14.1695C11.964 14.239 11.8597 14.3339 11.7791 14.4475C11.6984 14.5611 11.6433 14.6909 11.6176 14.8278L11.2641 16.7529C11.2469 16.8468 11.2022 16.9333 11.1356 17.0016C11.069 17.0699 10.9836 17.1168 10.8902 17.1363C9.76122 17.3759 8.59453 17.3759 7.46554 17.1363C7.37225 17.1166 7.28692 17.0697 7.22035 17.0014C7.15379 16.9332 7.109 16.8467 7.09166 16.7529L6.73954 14.8278C6.71422 14.6907 6.65939 14.5606 6.57884 14.4467C6.49829 14.3329 6.39395 14.2378 6.27304 14.1683C6.15213 14.0987 6.01755 14.0562 5.87861 14.0438C5.73967 14.0314 5.5997 14.0494 5.46838 14.0964L3.6194 14.7544C3.52975 14.7865 3.43261 14.7914 3.34019 14.7684C3.24778 14.7454 3.16423 14.6956 3.10006 14.6253C2.32557 13.773 1.74077 12.7661 1.38432 11.671C1.3549 11.5804 1.35316 11.4832 1.37931 11.3916C1.40547 11.3001 1.45834 11.2184 1.53115 11.1571L3.02937 9.89135C3.13582 9.80151 3.22138 9.68951 3.28007 9.56318C3.33876 9.43684 3.36917 9.29922 3.36917 9.15992C3.36917 9.02062 3.33876 8.883 3.28007 8.75667C3.22138 8.63034 3.13582 8.51834 3.02937 8.42849L1.53115 7.16276C1.45834 7.10143 1.40547 7.01976 1.37931 6.92822C1.35316 6.83667 1.3549 6.73941 1.38432 6.64886H1.38297ZM6.798 9.15992C6.798 9.79092 7.04867 10.3961 7.49485 10.8423C7.94104 11.2885 8.54619 11.5391 9.1772 11.5391C9.8082 11.5391 10.4134 11.2885 10.8595 10.8423C11.3057 10.3961 11.5564 9.79092 11.5564 9.15992C11.5564 8.52892 11.3057 7.92377 10.8595 7.47758C10.4134 7.0314 9.8082 6.78073 9.1772 6.78073C8.54619 6.78073 7.94104 7.0314 7.49485 7.47758C7.04867 7.92377 6.798 8.52892 6.798 9.15992Z" stroke="#4F4F4F" stroke-width="2"/>
<circle cx="8.5641" cy="9.05462" r="1.61864" fill="#4F4F4F" stroke="#4F4F4F"/>
</svg>
