<svg width="18" height="13" viewBox="0 0 18 13" fill="none" xmlns="http://www.w3.org/2000/svg">
<path d="M0.818182 13C0.586364 13 0.392182 12.922 0.235636 12.766C0.0785454 12.6105 0 12.4177 0 12.1875V10.725C0 10.2646 0.119455 9.84127 0.358364 9.45506C0.596727 9.0694 0.913636 8.775 1.30909 8.57188C2.15455 8.15208 3.01364 7.8371 3.88636 7.62694C4.75909 7.41731 5.64545 7.3125 6.54545 7.3125C7.44545 7.3125 8.33182 7.41731 9.20455 7.62694C10.0773 7.8371 10.9364 8.15208 11.7818 8.57188C12.1773 8.775 12.4942 9.0694 12.7325 9.45506C12.9715 9.84127 13.0909 10.2646 13.0909 10.725V12.1875C13.0909 12.4177 13.0124 12.6105 12.8553 12.766C12.6987 12.922 12.5045 13 12.2727 13H0.818182ZM14.3386 13C14.4614 12.9052 14.5568 12.7866 14.625 12.6441C14.6932 12.5022 14.7273 12.3432 14.7273 12.1672V10.5625C14.7273 9.96667 14.5604 9.3944 14.2265 8.84569C13.8922 8.29752 13.4182 7.82708 12.8045 7.43437C13.5 7.51562 14.1545 7.65429 14.7682 7.85037C15.3818 8.047 15.9545 8.2875 16.4864 8.57188C16.9773 8.84271 17.3523 9.14388 17.6114 9.47538C17.8705 9.80742 18 10.1698 18 10.5625V12.1875C18 12.4177 17.9215 12.6105 17.7644 12.766C17.6078 12.922 17.4136 13 17.1818 13H14.3386ZM6.54545 6.5C5.64545 6.5 4.875 6.18177 4.23409 5.54531C3.59318 4.90885 3.27273 4.14375 3.27273 3.25C3.27273 2.35625 3.59318 1.59115 4.23409 0.954688C4.875 0.318229 5.64545 0 6.54545 0C7.44545 0 8.21591 0.318229 8.85682 0.954688C9.49773 1.59115 9.81818 2.35625 9.81818 3.25C9.81818 4.14375 9.49773 4.90885 8.85682 5.54531C8.21591 6.18177 7.44545 6.5 6.54545 6.5ZM14.7273 3.25C14.7273 4.14375 14.4068 4.90885 13.7659 5.54531C13.125 6.18177 12.3545 6.5 11.4545 6.5C11.3045 6.5 11.1136 6.48321 10.8818 6.44963C10.65 6.4155 10.4591 6.37813 10.3091 6.3375C10.6773 5.90417 10.9601 5.42344 11.1575 4.89531C11.3555 4.36719 11.4545 3.81875 11.4545 3.25C11.4545 2.68125 11.3555 2.13281 11.1575 1.60469C10.9601 1.07656 10.6773 0.595833 10.3091 0.1625C10.5 0.0947915 10.6909 0.050646 10.8818 0.0300626C11.0727 0.010021 11.2636 0 11.4545 0C12.3545 0 13.125 0.318229 13.7659 0.954688C14.4068 1.59115 14.7273 2.35625 14.7273 3.25ZM1.63636 11.375H11.4545V10.725C11.4545 10.576 11.4172 10.4406 11.3425 10.3188C11.2672 10.1969 11.1682 10.1021 11.0455 10.0344C10.3091 9.66875 9.56591 9.3944 8.81591 9.21131C8.06591 9.02877 7.30909 8.9375 6.54545 8.9375C5.78182 8.9375 5.025 9.02877 4.275 9.21131C3.525 9.3944 2.78182 9.66875 2.04545 10.0344C1.92273 10.1021 1.824 10.1969 1.74927 10.3188C1.674 10.4406 1.63636 10.576 1.63636 10.725V11.375ZM6.54545 4.875C6.99545 4.875 7.38082 4.71575 7.70155 4.39725C8.02173 4.07929 8.18182 3.69688 8.18182 3.25C8.18182 2.80312 8.02173 2.42071 7.70155 2.10275C7.38082 1.78425 6.99545 1.625 6.54545 1.625C6.09545 1.625 5.71036 1.78425 5.39018 2.10275C5.06945 2.42071 4.90909 2.80312 4.90909 3.25C4.90909 3.69688 5.06945 4.07929 5.39018 4.39725C5.71036 4.71575 6.09545 4.875 6.54545 4.875Z" fill="#828282"/>
</svg>
