<svg width="3" height="12" viewBox="0 0 3 12" fill="none" xmlns="http://www.w3.org/2000/svg">
<path d="M1.5 2.4C2.32843 2.4 3 1.86274 3 1.2C3 0.537258 2.32843 0 1.5 0C0.671573 0 0 0.537258 0 1.2C0 1.86274 0.671573 2.4 1.5 2.4Z" fill="black"/>
<path d="M1.5 7.19999C2.32843 7.19999 3 6.66273 3 5.99999C3 5.33725 2.32843 4.79999 1.5 4.79999C0.671573 4.79999 0 5.33725 0 5.99999C0 6.66273 0.671573 7.19999 1.5 7.19999Z" fill="black"/>
<path d="M1.5 12C2.32843 12 3 11.4628 3 10.8C3 10.1373 2.32843 9.60001 1.5 9.60001C0.671573 9.60001 0 10.1373 0 10.8C0 11.4628 0.671573 12 1.5 12Z" fill="black"/>
</svg>
