<svg width="17" height="17" viewBox="0 0 17 17" fill="none" xmlns="http://www.w3.org/2000/svg">
<path d="M7.64996 13.5999H9.34996V11.8999H7.64996V13.5999ZM8.49996 0C3.80798 0 0 3.80798 0 8.49996C0 13.1919 3.80798 16.9999 8.49996 16.9999C13.1919 16.9999 16.9999 13.1919 16.9999 8.49996C16.9999 3.80798 13.1919 0 8.49996 0ZM8.49996 15.2999C4.75148 15.2999 1.69999 12.2484 1.69999 8.49996C1.69999 4.75148 4.75148 1.69999 8.49996 1.69999C12.2484 1.69999 15.2999 4.75148 15.2999 8.49996C15.2999 12.2484 12.2484 15.2999 8.49996 15.2999ZM8.49996 3.39998C6.62147 3.39998 5.09998 4.92148 5.09998 6.79997H6.79997C6.79997 5.86497 7.56496 5.09998 8.49996 5.09998C9.43496 5.09998 10.2 5.86497 10.2 6.79997C10.2 8.49996 7.64996 8.28746 7.64996 11.0499H9.34996C9.34996 9.13746 11.8999 8.92496 11.8999 6.79997C11.8999 4.92148 10.3785 3.39998 8.49996 3.39998Z" fill="#64676C"/>
</svg>
