<svg width="11" height="11" viewBox="0 0 11 11" fill="none" xmlns="http://www.w3.org/2000/svg">
<path d="M5.5 11C3.96458 11 2.66406 10.4672 1.59844 9.40156C0.532812 8.33594 0 7.03542 0 5.5C0 3.96458 0.532812 2.66406 1.59844 1.59844C2.66406 0.532812 3.96458 0 5.5 0C6.29063 0 7.04688 0.163396 7.76875 0.490187C8.49063 0.816521 9.10938 1.28333 9.625 1.89062V0.6875C9.625 0.492708 9.691 0.329313 9.823 0.197313C9.95454 0.065771 10.1177 0 10.3125 0C10.5073 0 10.6705 0.065771 10.802 0.197313C10.934 0.329313 11 0.492708 11 0.6875V4.125C11 4.31979 10.934 4.48296 10.802 4.6145C10.6705 4.7465 10.5073 4.8125 10.3125 4.8125H6.875C6.68021 4.8125 6.51704 4.7465 6.3855 4.6145C6.2535 4.48296 6.1875 4.31979 6.1875 4.125C6.1875 3.93021 6.2535 3.76681 6.3855 3.63481C6.51704 3.50327 6.68021 3.4375 6.875 3.4375H9.075C8.70833 2.79583 8.20715 2.29167 7.57144 1.925C6.93527 1.55833 6.24479 1.375 5.5 1.375C4.35417 1.375 3.38021 1.77604 2.57812 2.57812C1.77604 3.38021 1.375 4.35417 1.375 5.5C1.375 6.64583 1.77604 7.61979 2.57812 8.42188C3.38021 9.22396 4.35417 9.625 5.5 9.625C6.29063 9.625 7.02121 9.41577 7.69175 8.99731C8.36183 8.57931 8.86302 8.02083 9.19531 7.32187C9.2526 7.19583 9.34725 7.08996 9.47925 7.00425C9.61079 6.91808 9.74531 6.875 9.88281 6.875C10.1464 6.875 10.3441 6.96667 10.4761 7.15C10.6077 7.33333 10.6219 7.53958 10.5187 7.76875C10.0833 8.74271 9.41302 9.52462 8.50781 10.1145C7.6026 10.7048 6.6 11 5.5 11Z" fill="#333333"/>
</svg>
