<svg width="17" height="17" viewBox="0 0 17 17" fill="none" xmlns="http://www.w3.org/2000/svg">
<path d="M16.1677 8.19635L8.80974 0.831107C8.67758 0.700027 8.51538 0.603247 8.33727 0.549196C8.15915 0.495145 7.97052 0.485462 7.78781 0.520992L2.10023 1.66278C1.99238 1.68432 1.89333 1.73731 1.81556 1.81508C1.73779 1.89285 1.6848 1.99191 1.66326 2.09976L0.52152 7.78756C0.485326 7.96919 0.494706 8.15695 0.548821 8.33406C0.602936 8.51117 0.7001 8.67211 0.831623 8.80249L8.19658 16.1677C8.30078 16.273 8.42482 16.3566 8.56152 16.4136C8.69822 16.4706 8.84487 16.5 8.99298 16.5C9.1411 16.5 9.28775 16.4706 9.42445 16.4136C9.56115 16.3566 9.68519 16.273 9.78939 16.1677L16.1677 9.78922C16.2729 9.68501 16.3565 9.56097 16.4135 9.42427C16.4705 9.28756 16.4999 9.14091 16.4999 8.99279C16.4999 8.84466 16.4705 8.69801 16.4135 8.5613C16.3565 8.4246 16.2729 8.30056 16.1677 8.19635ZM8.99298 15.3713L1.62803 8.00605L2.69224 2.6918L8.00629 1.62754L15.3713 8.99279L8.99298 15.3713ZM6.01881 5.17273C6.01881 5.34 5.96921 5.50352 5.87628 5.64261C5.78335 5.7817 5.65126 5.8901 5.49672 5.95411C5.34218 6.01813 5.17213 6.03488 5.00808 6.00224C4.84402 5.96961 4.69333 5.88906 4.57505 5.77078C4.45677 5.65249 4.37622 5.50179 4.34359 5.33773C4.31095 5.17366 4.3277 5.00361 4.39171 4.84906C4.45573 4.69452 4.56413 4.56243 4.70321 4.46949C4.84229 4.37656 5.0058 4.32696 5.17307 4.32696C5.39738 4.32696 5.61249 4.41606 5.7711 4.57468C5.92971 4.73329 6.01881 4.94841 6.01881 5.17273Z" fill="#828282"/>
<path fill-rule="evenodd" clip-rule="evenodd" d="M8.80974 0.831107L16.1677 8.19635C16.2729 8.30056 16.3565 8.4246 16.4135 8.5613C16.4705 8.69801 16.4999 8.84466 16.4999 8.99279C16.4999 9.14091 16.4705 9.28756 16.4135 9.42427C16.3565 9.56097 16.2729 9.68501 16.1677 9.78922L9.78939 16.1677C9.68519 16.273 9.56115 16.3566 9.42445 16.4136C9.28775 16.4706 9.1411 16.5 8.99298 16.5C8.84487 16.5 8.69822 16.4706 8.56152 16.4136C8.42482 16.3566 8.30078 16.273 8.19658 16.1677L0.831623 8.80249C0.7001 8.67211 0.602936 8.51117 0.548821 8.33406C0.494706 8.15695 0.485326 7.96919 0.52152 7.78756L1.66326 2.09976C1.6848 1.99191 1.73779 1.89285 1.81556 1.81508C1.89333 1.73731 1.99238 1.68432 2.10023 1.66278L7.78781 0.520992C7.97052 0.485462 8.15915 0.495145 8.33727 0.549196C8.51538 0.603247 8.67758 0.700027 8.80974 0.831107ZM1.17295 2.00185L0.0313013 7.68916C-0.0210411 7.95181 -0.00761294 8.22404 0.0706464 8.48017C0.148779 8.73588 0.288964 8.96829 0.478701 9.15667C0.479009 9.15698 0.479318 9.15728 0.479627 9.15759L7.84123 16.5195C7.84159 16.5198 7.84195 16.5202 7.84231 16.5206C7.99278 16.6723 8.17178 16.7928 8.369 16.8751C8.56669 16.9575 8.77878 17 8.99299 17C9.2072 17 9.41928 16.9575 9.61697 16.8751C9.81417 16.7928 9.99315 16.6723 10.1436 16.5206C10.144 16.5202 10.1444 16.5199 10.1447 16.5195L16.5194 10.1446C16.5197 10.1443 16.52 10.1439 16.5203 10.1436C16.6721 9.99313 16.7927 9.81407 16.875 9.61678C16.9574 9.41908 16.9999 9.207 16.9999 8.99279C16.9999 8.77857 16.9574 8.56649 16.875 8.3688C16.7927 8.17153 16.6722 7.99249 16.5204 7.84199C16.5201 7.84166 16.5197 7.84134 16.5194 7.84101L9.16348 0.47773L9.16185 0.476109C8.97182 0.287626 8.73858 0.148463 8.48246 0.0707409C8.22634 -0.0069811 7.95511 -0.0209042 7.69237 0.0301847L2.00231 1.17246C2.00222 1.17248 2.00241 1.17244 2.00231 1.17246M8.99298 15.3713L15.3713 8.99279L8.00629 1.62754L2.69224 2.6918L1.62803 8.00605L8.99298 15.3713ZM8.99299 14.6642L14.6642 8.99279L7.84201 2.17037L3.1171 3.11664L2.17085 7.84178L8.99299 14.6642ZM6.51881 5.17273C6.51881 5.43889 6.43989 5.69908 6.29202 5.92039C6.14415 6.1417 5.93398 6.31419 5.68807 6.41605C5.44217 6.51791 5.17158 6.54456 4.91053 6.49264C4.64948 6.44071 4.40969 6.31253 4.22149 6.12432C4.03329 5.93611 3.90512 5.69632 3.8532 5.43527C3.80127 5.17422 3.82792 4.90363 3.92977 4.65773C4.03163 4.41182 4.20411 4.20164 4.42542 4.05376C4.64672 3.90589 4.90691 3.82696 5.17308 3.82696C5.52999 3.82696 5.87229 3.96875 6.12466 4.22113C6.37704 4.47351 6.51881 4.81581 6.51881 5.17273ZM5.87628 5.64261C5.96921 5.50352 6.01881 5.34 6.01881 5.17273C6.01881 4.94841 5.92971 4.73329 5.7711 4.57468C5.61249 4.41606 5.39738 4.32696 5.17307 4.32696C5.0058 4.32696 4.84229 4.37656 4.70321 4.46949C4.56413 4.56243 4.45573 4.69452 4.39171 4.84906C4.3277 5.00361 4.31095 5.17366 4.34359 5.33773C4.37622 5.50179 4.45677 5.65249 4.57505 5.77078C4.69333 5.88906 4.84402 5.96961 5.00808 6.00224C5.17213 6.03488 5.34218 6.01813 5.49672 5.95411C5.65126 5.8901 5.78335 5.7817 5.87628 5.64261Z" fill="#828282"/>
</svg>
